<svg width="112" height="112" viewBox="0 0 112 112" fill="none" xmlns="http://www.w3.org/2000/svg">
<path d="M56.4525 85.5314C55.8391 85.5314 55.2508 85.2828 54.8171 84.8403C54.3833 84.3977 54.1396 83.7975 54.1396 83.1717V29.2239C54.1396 28.598 54.3833 27.9978 54.8171 27.5553C55.2508 27.1128 55.8391 26.8641 56.4525 26.8641C57.0659 26.8641 57.6542 27.1128 58.0879 27.5553C58.5217 27.9978 58.7654 28.598 58.7654 29.2239V83.1717C58.7654 83.7975 58.5217 84.3977 58.0879 84.8403C57.6542 85.2828 57.0659 85.5314 56.4525 85.5314Z" fill="#00AEEF"/>
<path d="M56.4761 79.4631C53.8741 79.4664 51.2977 78.9385 48.8985 77.9107C46.4994 76.8828 44.3261 75.3756 42.5065 73.4779C42.2908 73.257 42.1202 72.9948 42.0045 72.7063C41.8887 72.4179 41.8301 72.1088 41.8321 71.7971C41.8341 71.4854 41.8966 71.1772 42.016 70.8903C42.1354 70.6033 42.3093 70.3434 42.5277 70.1254C42.7462 69.9075 43.0047 69.7358 43.2885 69.6204C43.5723 69.505 43.8757 69.4481 44.1812 69.4529C44.4867 69.4578 44.7882 69.5244 45.0683 69.6489C45.3485 69.7733 45.6016 69.9532 45.8132 70.178C47.3123 71.7388 49.1232 72.952 51.1228 73.735C53.1225 74.518 55.2638 74.8526 57.4015 74.7159C64.8702 74.0983 66.9721 71.625 68.0382 69.2838C69.9838 65.013 67.0415 62.2046 64.2284 60.6C59.2648 58.3457 54.1873 56.3621 49.0173 54.6576C46.4728 53.7263 44.3904 51.8097 43.2213 49.3229C42.0522 46.8362 41.8905 43.9795 42.7713 41.372C45.1989 32.0684 54.7122 32.4051 58.2808 32.5599C62.634 32.8793 66.7452 34.7245 69.9175 37.7827C70.1403 37.9951 70.3196 38.2504 70.4452 38.5339C70.5708 38.8173 70.6402 39.1233 70.6494 39.4343C70.6586 39.7452 70.6075 40.0549 70.4988 40.3456C70.3902 40.6363 70.2263 40.9021 70.0165 41.1279C69.8067 41.3536 69.5552 41.5348 69.2765 41.661C68.9978 41.7871 68.6975 41.8558 68.3926 41.863C68.0878 41.8702 67.7846 41.8158 67.5005 41.7029C67.2164 41.59 66.9569 41.4209 66.7371 41.2053C64.3606 38.9122 61.2835 37.5226 58.022 37.2695C51.3394 36.9898 48.2855 38.5595 47.1895 42.7602C46.6658 44.1961 46.7222 45.7853 47.3461 47.1789C47.97 48.5725 49.1106 49.6564 50.5172 50.1927C55.8854 51.9643 61.1553 54.032 66.3036 56.3868C72.6911 60.0217 74.8383 65.5495 72.2304 71.2736C69.9567 76.2696 65.4845 78.7828 57.7328 79.4225C57.3134 79.4477 56.8946 79.4631 56.4761 79.4631Z" fill="#00AEEF"/>
<path d="M90.8529 76.7963H90.822C90.3955 76.7907 89.9789 76.6648 89.618 76.4327C89.2572 76.2006 88.9662 75.8714 88.7772 75.4812L84.7235 67.0963C84.4519 66.5348 84.4101 65.8863 84.6072 65.2933C84.8043 64.7004 85.2241 64.2116 85.7744 63.9345C86.3248 63.6575 86.9605 63.6148 87.5416 63.8159C88.1228 64.017 88.6018 64.4454 88.8734 65.0068L90.7469 68.8812C93.297 61.8089 93.687 54.1143 91.8655 46.8113C90.0441 39.5084 86.0966 32.9398 80.5434 27.9714C74.9902 23.0029 68.0918 19.8677 60.7574 18.979C53.4229 18.0902 45.9966 19.4895 39.4572 22.9926C39.1881 23.1386 38.8935 23.2289 38.5901 23.2583C38.2867 23.2876 37.9806 23.2556 37.6894 23.1639C37.3982 23.0722 37.1277 22.9227 36.8933 22.724C36.6589 22.5252 36.4653 22.2812 36.3236 22.0059C36.182 21.7306 36.095 21.4295 36.0678 21.1198C36.0406 20.8101 36.0736 20.498 36.165 20.2013C36.2565 19.9047 36.4044 19.6295 36.6004 19.3914C36.7964 19.1533 37.0367 18.9571 37.3073 18.814C45.0817 14.6498 53.9573 13.1305 62.6381 14.4779C71.3189 15.8254 79.3501 19.969 85.559 26.3037C91.7679 32.6384 95.8292 40.8324 97.1498 49.6892C98.4705 58.5459 96.9814 67.6014 92.8999 75.5334C92.7039 75.9143 92.4097 76.2333 92.0489 76.4559C91.6881 76.6785 91.2745 76.7962 90.8529 76.7963Z" fill="#171D4C"/>
<path d="M56.5275 98C49.8367 98.0123 43.2437 96.3607 37.3194 93.1882C31.395 90.0157 26.3177 85.4179 22.5269 79.7928C18.7362 74.1677 16.3462 67.6849 15.5638 60.9053C14.7815 54.1257 15.6303 47.2537 18.0369 40.8842L13.3449 41.941C13.0463 42.013 12.7368 42.0237 12.4342 41.9725C12.1315 41.9212 11.8419 41.809 11.5822 41.6425C11.3225 41.476 11.0978 41.2584 10.9213 41.0024C10.7447 40.7464 10.6199 40.4572 10.554 40.1515C10.4881 39.8458 10.4824 39.5298 10.5374 39.2219C10.5923 38.914 10.7067 38.6203 10.874 38.3579C11.0413 38.0956 11.2581 37.8698 11.5117 37.6937C11.7653 37.5176 12.0508 37.3948 12.3514 37.3323L21.5516 35.2614C21.9819 35.1648 22.4303 35.1957 22.8441 35.3503C23.2578 35.5049 23.6196 35.7769 23.8869 36.1343C24.1543 36.4916 24.3161 36.9195 24.3531 37.3674C24.3902 37.8154 24.3011 38.2648 24.0963 38.6629C20.4736 45.7042 19.1521 53.7426 20.3247 61.6045C21.4972 69.4664 25.1024 76.74 30.6139 82.3632C36.1254 87.9864 43.2545 91.6647 50.9602 92.861C58.6659 94.0573 66.5448 92.709 73.4462 89.0129C73.9893 88.722 74.6234 88.6631 75.209 88.8492C75.7947 89.0353 76.284 89.4511 76.5691 90.0052C76.8543 90.5594 76.912 91.2064 76.7296 91.8039C76.5472 92.4014 76.1396 92.9006 75.5965 93.1915C69.7168 96.3493 63.1721 97.9997 56.5275 98Z" fill="#171D4C"/>
<path d="M26.6438 48.2213C26.2336 48.2221 25.8306 48.1115 25.4761 47.901C25.1216 47.6905 24.8284 47.3875 24.6265 47.0232L20.0337 38.7274C19.8842 38.4574 19.7883 38.1601 19.7515 37.8523C19.7146 37.5446 19.7375 37.2324 19.8189 36.9337C19.9002 36.635 20.0385 36.3556 20.2257 36.1114C20.4129 35.8671 20.6454 35.6629 20.91 35.5104C21.1745 35.3579 21.466 35.26 21.7676 35.2224C22.0692 35.1848 22.3752 35.2082 22.668 35.2912C22.9607 35.3742 23.2346 35.5152 23.474 35.7063C23.7134 35.8973 23.9135 36.1345 24.063 36.4044L28.6557 44.7003C28.8546 45.0592 28.9579 45.465 28.9552 45.8773C28.9525 46.2895 28.844 46.6939 28.6405 47.05C28.437 47.4062 28.1456 47.7018 27.7953 47.9073C27.445 48.1128 27.0479 48.2211 26.6438 48.2213Z" fill="#171D4C"/>
<path d="M90.85 76.7962C90.288 76.7953 89.7456 76.5856 89.3241 76.2063C88.9026 75.8271 88.6309 75.3043 88.5597 74.7355C88.4884 74.1667 88.6227 73.591 88.9372 73.1158C89.2518 72.6407 89.7251 72.2986 90.2688 72.1535L98.6438 69.926C99.2329 69.7806 99.8544 69.8771 100.375 70.1945C100.895 70.512 101.272 71.0251 101.425 71.6234C101.578 72.2218 101.495 72.8576 101.193 73.3939C100.892 73.9303 100.396 74.3245 99.8122 74.4915L91.4372 76.7195C91.2455 76.7706 91.0482 76.7964 90.85 76.7962Z" fill="#171D4C"/>
</svg>
